<svg width="20" height="20" viewBox="0 0 20 20" fill="none" xmlns="http://www.w3.org/2000/svg">
<path d="M5.37335 6.64166C5.49957 5.50285 6.04137 4.45059 6.89503 3.68633C7.74869 2.92206 8.85422 2.49948 10 2.49948C11.1458 2.49948 12.2513 2.92206 13.105 3.68633C13.9587 4.45059 14.5005 5.50285 14.6267 6.64166L14.8367 8.53L14.8417 8.5775C14.9493 9.51418 15.2543 10.4174 15.7367 11.2275L15.7617 11.2692L16.2425 12.0717C16.68 12.8 16.8983 13.1642 16.8508 13.4633C16.8195 13.6619 16.7174 13.8424 16.5633 13.9717C16.3308 14.1667 15.9058 14.1667 15.0567 14.1667H4.94335C4.09335 14.1667 3.66835 14.1667 3.43668 13.9725C3.28218 13.8432 3.17975 13.6623 3.14835 13.4633C3.10168 13.1642 3.32001 12.8 3.75668 12.0717L4.23918 11.2683L4.26418 11.2267C4.74614 10.4167 5.0509 9.51383 5.15835 8.5775L5.16335 8.53L5.37335 6.64166Z" stroke="#BBFB4C" stroke-width="1.66667"/>
<path d="M6.66669 14.1667C6.66669 15.0507 7.01788 15.8986 7.643 16.5237C8.26812 17.1488 9.11597 17.5 10 17.5C10.8841 17.5 11.7319 17.1488 12.357 16.5237C12.9822 15.8986 13.3334 15.0507 13.3334 14.1667" stroke="#BBFB4C" stroke-width="1.66667" stroke-linecap="round"/>
</svg>
