<svg width="20" height="20" viewBox="0 0 20 20" fill="none" xmlns="http://www.w3.org/2000/svg">
<path d="M11.2083 2.11001C10.8702 1.82503 10.4422 1.66873 10 1.66873C9.55779 1.66873 9.12981 1.82503 8.79167 2.11001L3.16667 6.85334C2.95788 7.02931 2.79005 7.24874 2.6749 7.49632C2.55975 7.7439 2.50006 8.01363 2.5 8.28668V16.045C2.5 16.85 3.15333 17.5033 3.95833 17.5033H16.0417C16.4284 17.5033 16.7994 17.3497 17.0729 17.0762C17.3464 16.8027 17.5 16.4318 17.5 16.045V8.28668C17.4999 8.01363 17.4403 7.7439 17.3251 7.49632C17.21 7.24874 17.0421 7.02931 16.8333 6.85334L11.2083 2.11001ZM9.5975 3.06584C9.71017 2.971 9.85272 2.91899 10 2.91899C10.1473 2.91899 10.2898 2.971 10.4025 3.06584L16.0275 7.80918C16.0971 7.86777 16.1531 7.94086 16.1915 8.02334C16.2299 8.10582 16.2499 8.19569 16.25 8.28668V16.045C16.25 16.1003 16.2281 16.1533 16.189 16.1923C16.1499 16.2314 16.0969 16.2533 16.0417 16.2533H3.95833C3.90308 16.2533 3.85009 16.2314 3.81102 16.1923C3.77195 16.1533 3.75 16.1003 3.75 16.045V8.28668C3.75009 8.19569 3.77005 8.10582 3.80848 8.02334C3.84691 7.94086 3.90289 7.86777 3.9725 7.80918L9.5975 3.06584ZM13.1533 9.40001C13.213 9.34233 13.2606 9.27334 13.2933 9.19707C13.326 9.1208 13.3432 9.03878 13.3439 8.9558C13.3446 8.87281 13.3287 8.79052 13.2973 8.71372C13.2658 8.63693 13.2194 8.56717 13.1607 8.50851C13.1019 8.44986 13.0321 8.40348 12.9553 8.37209C12.8785 8.3407 12.7962 8.32493 12.7132 8.32569C12.6302 8.32645 12.5482 8.34373 12.472 8.37652C12.3957 8.40931 12.3268 8.45696 12.2692 8.51668L8.95833 11.8275L7.73333 10.6025C7.67611 10.5411 7.60711 10.4919 7.53045 10.4577C7.45378 10.4235 7.37102 10.4052 7.2871 10.4037C7.20318 10.4022 7.11983 10.4176 7.042 10.4491C6.96418 10.4805 6.89348 10.5273 6.83414 10.5866C6.77479 10.646 6.728 10.7167 6.69656 10.7945C6.66513 10.8723 6.64969 10.9557 6.65117 11.0396C6.65265 11.1235 6.67102 11.2063 6.70518 11.283C6.73934 11.3596 6.78859 11.4286 6.85 11.4858L8.51667 13.1525C8.63385 13.2696 8.79271 13.3353 8.95833 13.3353C9.12396 13.3353 9.28281 13.2696 9.4 13.1525L13.1533 9.40001Z" fill="#BBFB4C" stroke="#BBFB4C" stroke-width="0.67"/>
</svg>
