<svg width="20" height="20" viewBox="0 0 20 20" fill="none" xmlns="http://www.w3.org/2000/svg">
<path d="M17.5 6.66667V10H15.8333V7.5H11.6667V3.33334H4.16667V16.6667H9.16667V18.3333H3.3275C3.10818 18.3333 2.89783 18.2463 2.74266 18.0913C2.5875 17.9363 2.50022 17.726 2.5 17.5067V2.49334C2.5 2.04584 2.87417 1.66667 3.335 1.66667H12.4975L17.5 6.66667ZM11.4883 12.7725C11.5208 12.1667 11.9883 11.6733 12.5917 11.6092L13.3167 11.5325C13.403 11.5231 13.4843 11.487 13.5492 11.4292L14.0917 10.9417C14.31 10.7449 14.5914 10.6326 14.8852 10.625C15.179 10.6173 15.4659 10.7149 15.6942 10.9L16.2625 11.3583C16.3292 11.4125 16.4125 11.4442 16.4992 11.4492L17.2275 11.4883C17.8333 11.5208 18.3267 11.9883 18.3908 12.5917L18.4675 13.3167C18.4769 13.403 18.513 13.4843 18.5708 13.5492L19.0583 14.0917C19.4642 14.5433 19.4817 15.2225 19.1 15.6942L18.6417 16.2625C18.5875 16.33 18.5558 16.4128 18.5508 16.4992L18.5117 17.2275C18.4966 17.5211 18.3771 17.7996 18.1748 18.0129C17.9725 18.2262 17.7007 18.3602 17.4083 18.3908L16.6833 18.4675C16.597 18.4769 16.5157 18.513 16.4508 18.5708L15.9083 19.0583C15.69 19.2551 15.4086 19.3674 15.1148 19.375C14.821 19.3827 14.5341 19.2851 14.3058 19.1L13.7375 18.6417C13.67 18.5875 13.5872 18.5558 13.5008 18.5508L12.7725 18.5117C12.4789 18.4966 12.2004 18.3771 11.9871 18.1748C11.7738 17.9725 11.6398 17.7007 11.6092 17.4083L11.5325 16.6833C11.5231 16.597 11.487 16.5157 11.4292 16.4508L10.9417 15.9083C10.7449 15.69 10.6326 15.4086 10.625 15.1148C10.6173 14.821 10.7149 14.5341 10.9 14.3058L11.3583 13.7375C11.4125 13.67 11.4442 13.5872 11.4492 13.5008L11.4883 12.7725ZM17.525 14.1917L16.6417 13.3083L14.5833 15.3667L13.3583 14.1417L12.475 15.025L14.5833 17.1333L17.525 14.1917Z" fill="#BBFB4C"/>
</svg>
