<svg width="30" height="30" viewBox="0 0 30 30" fill="none" xmlns="http://www.w3.org/2000/svg">
<ellipse cx="15" cy="9.72622" rx="15" ry="9.72622" fill="#181818"/>
<path fill-rule="evenodd" clip-rule="evenodd" d="M20.4546 12.5871C20.4546 13.9066 19.8799 15.172 18.857 16.1051C17.834 17.0381 16.4467 17.5622 15 17.5622C13.5534 17.5622 12.166 17.0381 11.1431 16.1051C10.1201 15.172 9.54547 13.9066 9.54547 12.5871C9.54547 11.2676 10.1201 10.0022 11.1431 9.06918C12.166 8.13617 13.5534 7.61201 15 7.61201C16.4467 7.61201 17.834 8.13617 18.857 9.06918C19.8799 10.0022 20.4546 11.2676 20.4546 12.5871ZM17.7273 12.5871C17.7273 13.2469 17.44 13.8796 16.9285 14.3461C16.417 14.8126 15.7233 15.0747 15 15.0747C14.2767 15.0747 13.583 14.8126 13.0715 14.3461C12.5601 13.8796 12.2727 13.2469 12.2727 12.5871C12.2727 11.9274 12.5601 11.2947 13.0715 10.8282C13.583 10.3616 14.2767 10.0996 15 10.0996C15.7233 10.0996 16.417 10.3616 16.9285 10.8282C17.44 11.2947 17.7273 11.9274 17.7273 12.5871Z" fill="#BBFB4C"/>
<path fill-rule="evenodd" clip-rule="evenodd" d="M15 2.63689C6.71591 2.63689 0 8.76249 0 16.3184C0 23.8744 6.71591 30 15 30C23.2841 30 30 23.8744 30 16.3184C30 8.76249 23.2841 2.63689 15 2.63689ZM2.72727 16.3184C2.72727 18.9179 3.69955 21.311 5.32909 23.2115C6.47378 21.841 7.95021 20.7303 9.64314 19.9661C11.3361 19.2019 13.1997 18.8049 15.0886 18.806C16.9532 18.804 18.7937 19.1904 20.4697 19.9358C22.1457 20.6812 23.613 21.7658 24.7595 23.107C25.9411 21.6936 26.7366 20.0438 27.0803 18.2943C27.424 16.5448 27.306 14.7457 26.7361 13.046C26.1662 11.3464 25.1608 9.79489 23.8029 8.52C22.4451 7.24512 20.774 6.28347 18.9278 5.71463C17.0816 5.14578 15.1135 4.9861 13.1862 5.24879C11.2589 5.51148 9.4279 6.18898 7.84469 7.22525C6.26147 8.26152 4.97156 9.62676 4.08168 11.208C3.19179 12.7893 2.72752 14.541 2.72727 16.3184ZM15 27.5124C12.1826 27.5166 9.4502 26.6326 7.26545 25.01C8.14474 23.8615 9.31526 22.9238 10.6774 22.2767C12.0395 21.6296 13.5529 21.2923 15.0886 21.2936C16.6052 21.2923 18.1003 21.6212 19.4495 22.2529C20.7988 22.8846 21.9633 23.8008 22.8464 24.9254C20.6447 26.6008 17.8672 27.5165 15 27.5124Z" fill="#BBFB4C"/>
</svg>
