<svg width="20" height="20" viewBox="0 0 20 20" fill="none" xmlns="http://www.w3.org/2000/svg">
<path d="M3.33334 3.33332C3.33334 2.8913 3.50894 2.46737 3.8215 2.15481C4.13406 1.84225 4.55798 1.66666 5.00001 1.66666H11.6667C11.8877 1.6667 12.0996 1.75453 12.2558 1.91082L16.4225 6.07749C16.5788 6.23373 16.6666 6.44566 16.6667 6.66666V16.6667C16.6667 17.1087 16.4911 17.5326 16.1785 17.8452C15.866 18.1577 15.442 18.3333 15 18.3333H5.00001C4.55798 18.3333 4.13406 18.1577 3.8215 17.8452C3.50894 17.5326 3.33334 17.1087 3.33334 16.6667V3.33332ZM14.655 6.66666L11.6667 3.67832V6.66666H14.655ZM10 3.33332H5.00001V16.6667H15V8.33332H10.8333C10.6123 8.33332 10.4004 8.24553 10.2441 8.08925C10.0878 7.93296 10 7.721 10 7.49999V3.33332ZM6.66668 10.8333C6.66668 10.6123 6.75447 10.4003 6.91075 10.2441C7.06703 10.0878 7.279 9.99999 7.50001 9.99999H12.5C12.721 9.99999 12.933 10.0878 13.0893 10.2441C13.2455 10.4003 13.3333 10.6123 13.3333 10.8333C13.3333 11.0543 13.2455 11.2663 13.0893 11.4226C12.933 11.5789 12.721 11.6667 12.5 11.6667H7.50001C7.279 11.6667 7.06703 11.5789 6.91075 11.4226C6.75447 11.2663 6.66668 11.0543 6.66668 10.8333ZM6.66668 14.1667C6.66668 13.9456 6.75447 13.7337 6.91075 13.5774C7.06703 13.4211 7.279 13.3333 7.50001 13.3333H12.5C12.721 13.3333 12.933 13.4211 13.0893 13.5774C13.2455 13.7337 13.3333 13.9456 13.3333 14.1667C13.3333 14.3877 13.2455 14.5996 13.0893 14.7559C12.933 14.9122 12.721 15 12.5 15H7.50001C7.279 15 7.06703 14.9122 6.91075 14.7559C6.75447 14.5996 6.66668 14.3877 6.66668 14.1667Z" fill="#BBFB4C"/>
</svg>
