<svg width="20" height="20" viewBox="0 0 20 20" fill="none" xmlns="http://www.w3.org/2000/svg">
<path d="M15.9945 4.05079C14.816 2.86475 13.3119 2.05533 11.6728 1.72513C10.0338 1.39494 8.33356 1.55884 6.78775 2.19606C5.24194 2.83328 3.92014 3.91512 2.98989 5.30444C2.05965 6.69377 1.56286 8.32801 1.5625 10V14.375C1.5625 14.9552 1.79297 15.5116 2.2032 15.9218C2.61344 16.332 3.16984 16.5625 3.75 16.5625H5C5.58016 16.5625 6.13656 16.332 6.5468 15.9218C6.95703 15.5116 7.1875 14.9552 7.1875 14.375V11.25C7.1875 10.6698 6.95703 10.1134 6.5468 9.70321C6.13656 9.29297 5.58016 9.06251 5 9.06251H3.50312C3.72938 7.50069 4.51053 6.07259 5.70361 5.03962C6.89669 4.00666 8.42188 3.43791 10 3.43751H10.05C11.6211 3.44423 13.1372 4.01639 14.3211 5.0493C15.5049 6.08221 16.2773 7.50683 16.4969 9.06251H15C14.4198 9.06251 13.8634 9.29297 13.4532 9.70321C13.043 10.1134 12.8125 10.6698 12.8125 11.25V14.375C12.8125 14.9552 13.043 15.5116 13.4532 15.9218C13.8634 16.332 14.4198 16.5625 15 16.5625H16.25C16.5373 16.5625 16.8217 16.5059 17.0871 16.396C17.3525 16.2861 17.5937 16.1249 17.7968 15.9218C17.9999 15.7187 18.1611 15.4775 18.271 15.2121C18.3809 14.9467 18.4375 14.6623 18.4375 14.375V10C18.4418 8.8964 18.2282 7.80279 17.809 6.7819C17.3898 5.761 16.7732 4.83289 15.9945 4.05079ZM5 10.9375C5.08288 10.9375 5.16237 10.9704 5.22097 11.029C5.27958 11.0876 5.3125 11.1671 5.3125 11.25V14.375C5.3125 14.4579 5.27958 14.5374 5.22097 14.596C5.16237 14.6546 5.08288 14.6875 5 14.6875H3.75C3.66712 14.6875 3.58763 14.6546 3.52903 14.596C3.47042 14.5374 3.4375 14.4579 3.4375 14.375V10.9375H5ZM16.5625 14.375C16.5625 14.4579 16.5296 14.5374 16.471 14.596C16.4124 14.6546 16.3329 14.6875 16.25 14.6875H15C14.9171 14.6875 14.8376 14.6546 14.779 14.596C14.7204 14.5374 14.6875 14.4579 14.6875 14.375V11.25C14.6875 11.1671 14.7204 11.0876 14.779 11.029C14.8376 10.9704 14.9171 10.9375 15 10.9375H16.5625V14.375Z" fill="#BBFB4C"/>
</svg>
