<svg width="20" height="20" viewBox="0 0 20 20" fill="none" xmlns="http://www.w3.org/2000/svg">
<path d="M3.555 13.3833C4.25989 14.8089 5.40339 15.9708 6.8175 16.6983C8.22125 17.4195 9.82199 17.6629 11.3767 17.3917C12.9361 17.1172 14.3648 16.3454 15.4492 15.1917C16.5433 14.0267 17.24 12.5449 17.4392 10.9592C17.6411 9.36978 17.3366 7.75721 16.5692 6.35083C15.8087 4.95515 14.6201 3.84068 13.1783 3.17166C11.7464 2.50847 10.1372 2.33058 8.595 2.665C7.05333 2.99916 5.79 3.75916 4.745 4.96083C4.61917 5.09416 4.1325 5.6325 3.72833 6.445M6.25 6.66666L3.2425 7.26666L2.5 4.16666M10 7.5V10.8333L12.5 12.5" stroke="hsl(240 5.9% 10%)" stroke-width="1.66667" stroke-linecap="round" stroke-linejoin="round"/>
</svg>
