<svg width="30" height="30" viewBox="0 0 30 30" fill="none" xmlns="http://www.w3.org/2000/svg">
<circle cx="15" cy="15" r="15" fill="hsl(240 5.9% 10%)"/>
<path d="M12.4167 6.125H10.3333C9.7808 6.125 9.25089 6.34449 8.86019 6.73519C8.46949 7.12589 8.25 7.6558 8.25 8.20833V22.7917C8.25 23.3442 8.46949 23.8741 8.86019 24.2648C9.25089 24.6555 9.7808 24.875 10.3333 24.875H18.6667C19.2192 24.875 19.7491 24.6555 20.1398 24.2648C20.5305 23.8741 20.75 23.3442 20.75 22.7917V8.20833C20.75 7.6558 20.5305 7.12589 20.1398 6.73519C19.7491 6.34449 19.2192 6.125 18.6667 6.125H16.5833M12.4167 6.125H16.5833M12.4167 6.125V7.16667M16.5833 6.125V7.16667M12.4167 7.16667C12.4167 7.44293 12.5264 7.70789 12.7218 7.90324C12.9171 8.09859 13.1821 8.20833 13.4583 8.20833H15.5417C15.8179 8.20833 16.0829 8.09859 16.2782 7.90324C16.4736 7.70789 16.5833 7.44293 16.5833 7.16667M12.4167 7.16667H16.5833" stroke="#fff" stroke-width="1.83333" stroke-linecap="round" stroke-linejoin="round"/>
</svg>
