<svg width="163" height="30" viewBox="0 0 163 30" fill="none" xmlns="http://www.w3.org/2000/svg">
<circle cx="15" cy="15" r="15" fill="#BBFB4C"/>
<path d="M12.4167 6.125H10.3333C9.7808 6.125 9.25089 6.34449 8.86019 6.73519C8.46949 7.12589 8.25 7.6558 8.25 8.20833V22.7917C8.25 23.3442 8.46949 23.8741 8.86019 24.2648C9.25089 24.6555 9.7808 24.875 10.3333 24.875H18.6667C19.2192 24.875 19.7491 24.6555 20.1398 24.2648C20.5305 23.8741 20.75 23.3442 20.75 22.7917V8.20833C20.75 7.6558 20.5305 7.12589 20.1398 6.73519C19.7491 6.34449 19.2192 6.125 18.6667 6.125H16.5833M12.4167 6.125H16.5833M12.4167 6.125V7.16667M16.5833 6.125V7.16667M12.4167 7.16667C12.4167 7.44293 12.5264 7.70789 12.7218 7.90324C12.9171 8.09859 13.1821 8.20833 13.4583 8.20833H15.5417C15.8179 8.20833 16.0829 8.09859 16.2782 7.90324C16.4736 7.70789 16.5833 7.44293 16.5833 7.16667M12.4167 7.16667H16.5833" stroke="#181818" stroke-width="1.83333" stroke-linecap="round" stroke-linejoin="round"/>
<path d="M43.3395 11.9531C43.2732 11.3329 42.9938 10.8499 42.5014 10.5043C42.0137 10.1586 41.3793 9.9858 40.598 9.9858C40.0488 9.9858 39.5777 10.0687 39.1847 10.2344C38.7917 10.4001 38.491 10.625 38.2827 10.9091C38.0743 11.1932 37.9678 11.5175 37.9631 11.8821C37.9631 12.1851 38.0317 12.4479 38.169 12.6705C38.3111 12.893 38.5028 13.0824 38.7443 13.2386C38.9858 13.3902 39.2533 13.518 39.5469 13.6222C39.8404 13.7263 40.1364 13.8139 40.4347 13.8849L41.7983 14.2259C42.3475 14.3537 42.8755 14.5265 43.3821 14.7443C43.8935 14.9621 44.3504 15.2367 44.7528 15.5682C45.16 15.8996 45.482 16.2997 45.7188 16.7685C45.9555 17.2372 46.0739 17.7865 46.0739 18.4162C46.0739 19.2685 45.8561 20.0189 45.4205 20.6676C44.9848 21.3116 44.3551 21.8158 43.5312 22.1804C42.7121 22.5402 41.7202 22.7202 40.5554 22.7202C39.4238 22.7202 38.4413 22.545 37.608 22.1946C36.7794 21.8442 36.1307 21.3329 35.6619 20.6605C35.1979 19.9882 34.947 19.169 34.9091 18.2031H37.5014C37.5393 18.7098 37.6955 19.1312 37.9702 19.4673C38.2448 19.8035 38.6023 20.0545 39.0426 20.2202C39.4877 20.3859 39.9848 20.4688 40.5341 20.4688C41.107 20.4688 41.6089 20.3835 42.0398 20.2131C42.4754 20.0379 42.8163 19.7964 43.0625 19.4886C43.3087 19.1761 43.4342 18.8116 43.4389 18.3949C43.4342 18.0161 43.3229 17.7036 43.1051 17.4574C42.8873 17.2064 42.5819 16.9981 42.1889 16.8324C41.8007 16.6619 41.3461 16.5104 40.8253 16.3778L39.1705 15.9517C37.9725 15.6439 37.0256 15.1776 36.3295 14.5526C35.6383 13.9228 35.2926 13.0871 35.2926 12.0455C35.2926 11.1884 35.5246 10.438 35.9886 9.79403C36.4574 9.15009 37.0942 8.65057 37.8991 8.29545C38.7041 7.93561 39.6155 7.75568 40.6335 7.75568C41.6657 7.75568 42.5701 7.93561 43.3466 8.29545C44.1278 8.65057 44.741 9.14536 45.1861 9.77983C45.6312 10.4096 45.8608 11.134 45.875 11.9531H43.3395ZM50.6531 19.0767L50.646 15.973H51.0579L54.9783 11.5909H57.9826L53.1602 16.9602H52.6275L50.6531 19.0767ZM48.3093 22.5V7.95455H50.8803V22.5H48.3093ZM55.1559 22.5L51.6048 17.5355L53.3377 15.7244L58.2312 22.5H55.1559ZM62.267 7.95455V22.5H59.696V7.95455H62.267ZM68.0501 22.7202C67.3588 22.7202 66.7362 22.5971 66.1822 22.3509C65.6329 22.0999 65.1973 21.7306 64.8754 21.2429C64.5581 20.7552 64.3995 20.1539 64.3995 19.4389C64.3995 18.8234 64.5131 18.3144 64.7404 17.9119C64.9677 17.5095 65.2778 17.1875 65.6708 16.946C66.0638 16.7045 66.5065 16.5223 66.9989 16.3991C67.4961 16.2713 68.0098 16.179 68.5401 16.1222C69.1793 16.0559 69.6978 15.9967 70.0955 15.9446C70.4933 15.8878 70.7821 15.8026 70.962 15.6889C71.1467 15.5705 71.239 15.3883 71.239 15.142V15.0994C71.239 14.5644 71.0804 14.1501 70.7631 13.8565C70.4459 13.563 69.989 13.4162 69.3924 13.4162C68.7627 13.4162 68.2631 13.5535 67.8938 13.8281C67.5292 14.1027 67.283 14.4271 67.1552 14.8011L64.7546 14.4602C64.944 13.7973 65.2565 13.2434 65.6921 12.7983C66.1277 12.3485 66.6604 12.0123 67.2901 11.7898C67.9199 11.5625 68.6159 11.4489 69.3782 11.4489C69.9038 11.4489 70.427 11.5104 70.9478 11.6335C71.4686 11.7566 71.9445 11.9602 72.3754 12.2443C72.8062 12.5237 73.1519 12.9048 73.4123 13.3878C73.6774 13.8707 73.81 14.4744 73.81 15.1989V22.5H71.3384V21.0014H71.2532C71.0969 21.3045 70.8768 21.5885 70.5927 21.8537C70.3133 22.1141 69.9606 22.3248 69.5344 22.4858C69.113 22.642 68.6183 22.7202 68.0501 22.7202ZM68.7177 20.831C69.2338 20.831 69.6812 20.7292 70.06 20.5256C70.4388 20.3172 70.73 20.0426 70.9336 19.7017C71.1419 19.3608 71.2461 18.9891 71.2461 18.5866V17.3011C71.1656 17.3674 71.0283 17.429 70.8342 17.4858C70.6448 17.5426 70.4317 17.5923 70.195 17.6349C69.9582 17.6776 69.7238 17.7154 69.4918 17.7486C69.2598 17.7817 69.0586 17.8101 68.8881 17.8338C68.5046 17.8859 68.1613 17.9711 67.8583 18.0895C67.5553 18.2079 67.3162 18.3736 67.141 18.5866C66.9658 18.795 66.8782 19.0649 66.8782 19.3963C66.8782 19.8698 67.051 20.2273 67.3967 20.4688C67.7423 20.7102 68.1826 20.831 68.7177 20.831ZM80.4435 22.6918C79.5865 22.6918 78.8195 22.4716 78.1424 22.0312C77.4653 21.5909 76.9303 20.9517 76.5373 20.1136C76.1443 19.2756 75.9478 18.2576 75.9478 17.0597C75.9478 15.8475 76.1467 14.8248 76.5444 13.9915C76.9469 13.1534 77.489 12.5213 78.1708 12.0952C78.8526 11.6643 79.6126 11.4489 80.4506 11.4489C81.0898 11.4489 81.6154 11.5578 82.0273 11.7756C82.4393 11.9886 82.766 12.2467 83.0075 12.5497C83.2489 12.848 83.436 13.1297 83.5685 13.3949H83.6751V7.95455H86.2532V22.5H83.7248V20.7812H83.5685C83.436 21.0464 83.2442 21.3281 82.9933 21.6264C82.7423 21.92 82.4109 22.1709 81.9989 22.3793C81.587 22.5876 81.0685 22.6918 80.4435 22.6918ZM81.1609 20.5824C81.7054 20.5824 82.1694 20.4356 82.5529 20.142C82.9364 19.8437 83.2276 19.4295 83.4265 18.8991C83.6254 18.3688 83.7248 17.7509 83.7248 17.0455C83.7248 16.34 83.6254 15.7268 83.4265 15.206C83.2324 14.6851 82.9435 14.2803 82.56 13.9915C82.1812 13.7027 81.7148 13.5582 81.1609 13.5582C80.588 13.5582 80.1097 13.7074 79.7262 14.0057C79.3427 14.304 79.0539 14.7159 78.8597 15.2415C78.6656 15.767 78.5685 16.3684 78.5685 17.0455C78.5685 17.7273 78.6656 18.3357 78.8597 18.8707C79.0586 19.401 79.3498 19.8201 79.7333 20.1278C80.1216 20.4309 80.5974 20.5824 81.1609 20.5824ZM88.7017 19.8011V17.706L94.8736 7.95455H96.6207V10.9375H95.5554L91.4006 17.5213V17.6349H100.016V19.8011H88.7017ZM95.6406 22.5V19.1619L95.669 18.2244V7.95455H98.1548V22.5H95.6406ZM102.427 22.5V7.95455H107.881C108.999 7.95455 109.936 8.16288 110.694 8.57955C111.456 8.99621 112.031 9.56913 112.42 10.2983C112.813 11.0227 113.009 11.8466 113.009 12.7699C113.009 13.7027 112.813 14.5312 112.42 15.2557C112.027 15.9801 111.447 16.5507 110.68 16.9673C109.913 17.3793 108.968 17.5852 107.846 17.5852H104.231V15.419H107.491C108.144 15.419 108.679 15.3054 109.096 15.0781C109.513 14.8509 109.82 14.5384 110.019 14.1406C110.223 13.7429 110.325 13.286 110.325 12.7699C110.325 12.2538 110.223 11.7992 110.019 11.4062C109.82 11.0133 109.51 10.7079 109.089 10.4901C108.672 10.2675 108.135 10.1562 107.477 10.1562H105.062V22.5H102.427ZM117.755 16.108V22.5H115.184V7.95455H117.699V13.4446H117.826C118.082 12.8291 118.477 12.3437 119.012 11.9886C119.552 11.6288 120.239 11.4489 121.072 11.4489C121.83 11.4489 122.49 11.6075 123.054 11.9247C123.617 12.242 124.053 12.706 124.36 13.3168C124.673 13.9276 124.829 14.6733 124.829 15.554V22.5H122.258V15.9517C122.258 15.2178 122.069 14.6473 121.69 14.2401C121.316 13.8281 120.79 13.6222 120.113 13.6222C119.659 13.6222 119.252 13.7216 118.892 13.9205C118.537 14.1146 118.257 14.3963 118.054 14.7656C117.855 15.1349 117.755 15.5824 117.755 16.108ZM132.208 22.7131C131.143 22.7131 130.22 22.4787 129.439 22.0099C128.657 21.5412 128.051 20.8854 127.62 20.0426C127.194 19.1998 126.981 18.215 126.981 17.0881C126.981 15.9612 127.194 14.974 127.62 14.1264C128.051 13.2789 128.657 12.6207 129.439 12.152C130.22 11.6832 131.143 11.4489 132.208 11.4489C133.274 11.4489 134.197 11.6832 134.978 12.152C135.76 12.6207 136.363 13.2789 136.789 14.1264C137.22 14.974 137.436 15.9612 137.436 17.0881C137.436 18.215 137.22 19.1998 136.789 20.0426C136.363 20.8854 135.76 21.5412 134.978 22.0099C134.197 22.4787 133.274 22.7131 132.208 22.7131ZM132.223 20.6534C132.8 20.6534 133.283 20.4948 133.672 20.1776C134.06 19.8556 134.349 19.4247 134.538 18.8849C134.732 18.3452 134.829 17.7438 134.829 17.081C134.829 16.4134 134.732 15.8097 134.538 15.2699C134.349 14.7254 134.06 14.2921 133.672 13.9702C133.283 13.6482 132.8 13.4872 132.223 13.4872C131.631 13.4872 131.138 13.6482 130.745 13.9702C130.357 14.2921 130.066 14.7254 129.872 15.2699C129.682 15.8097 129.588 16.4134 129.588 17.081C129.588 17.7438 129.682 18.3452 129.872 18.8849C130.066 19.4247 130.357 19.8556 130.745 20.1776C131.138 20.4948 131.631 20.6534 132.223 20.6534ZM142.189 16.108V22.5H139.618V11.5909H142.075V13.4446H142.203C142.454 12.8338 142.854 12.3485 143.403 11.9886C143.957 11.6288 144.642 11.4489 145.456 11.4489C146.209 11.4489 146.865 11.6098 147.423 11.9318C147.987 12.2538 148.422 12.7202 148.73 13.331C149.043 13.9418 149.196 14.6828 149.192 15.554V22.5H146.621V15.9517C146.621 15.2225 146.431 14.652 146.053 14.2401C145.679 13.8281 145.16 13.6222 144.497 13.6222C144.047 13.6222 143.647 13.7216 143.297 13.9205C142.951 14.1146 142.679 14.3963 142.48 14.7656C142.286 15.1349 142.189 15.5824 142.189 16.108ZM156.635 22.7131C155.541 22.7131 154.597 22.4858 153.801 22.0312C153.01 21.572 152.402 20.9233 151.976 20.0852C151.55 19.2424 151.337 18.2505 151.337 17.1094C151.337 15.9872 151.55 15.0024 151.976 14.1548C152.407 13.3026 153.008 12.6397 153.78 12.1662C154.552 11.688 155.458 11.4489 156.5 11.4489C157.172 11.4489 157.807 11.5578 158.403 11.7756C159.005 11.9886 159.535 12.3201 159.994 12.7699C160.458 13.2197 160.823 13.7926 161.088 14.4886C161.353 15.1799 161.486 16.0038 161.486 16.9602V17.7486H152.544V16.0156H159.021C159.017 15.5232 158.91 15.0852 158.702 14.7017C158.493 14.3134 158.202 14.008 157.828 13.7855C157.459 13.563 157.028 13.4517 156.536 13.4517C156.01 13.4517 155.548 13.5795 155.151 13.8352C154.753 14.0862 154.443 14.4176 154.22 14.8295C154.002 15.2367 153.891 15.6842 153.886 16.1719V17.6847C153.886 18.3191 154.002 18.8636 154.234 19.3182C154.466 19.768 154.791 20.1136 155.207 20.3551C155.624 20.5919 156.112 20.7102 156.67 20.7102C157.045 20.7102 157.383 20.6581 157.686 20.554C157.989 20.4451 158.252 20.2865 158.474 20.0781C158.697 19.8698 158.865 19.6117 158.979 19.304L161.379 19.5739C161.228 20.2083 160.939 20.7623 160.513 21.2358C160.091 21.7045 159.552 22.0691 158.893 22.3295C158.235 22.5852 157.482 22.7131 156.635 22.7131Z" fill="#BBFB4C"/>
</svg>
