<svg width="20" height="20" viewBox="0 0 20 20" fill="none" xmlns="http://www.w3.org/2000/svg">
<path d="M10 9.16666C12.3012 9.16666 14.1667 7.48773 14.1667 5.41666C14.1667 3.3456 12.3012 1.66666 10 1.66666C7.69882 1.66666 5.83334 3.3456 5.83334 5.41666C5.83334 7.48773 7.69882 9.16666 10 9.16666Z" stroke="hsl(240 5.9% 10%)" stroke-width="1.83333"/>
<path d="M14.1667 10.6667H14.46C15.0692 10.6668 15.6574 10.8672 16.1141 11.2301C16.5708 11.5931 16.8645 12.0936 16.94 12.6377L17.2658 14.9807C17.2952 15.1917 17.2742 15.406 17.2045 15.6092C17.1348 15.8125 17.0178 16.0001 16.8614 16.1595C16.7049 16.319 16.5126 16.4466 16.2971 16.5341C16.0817 16.6215 15.848 16.6667 15.6117 16.6667H4.38834C4.152 16.6667 3.91834 16.6215 3.70288 16.5341C3.48742 16.4466 3.29509 16.319 3.13866 16.1595C2.98222 16.0001 2.86525 15.8125 2.79551 15.6092C2.72578 15.406 2.70487 15.1917 2.73418 14.9807L3.05918 12.6377C3.13476 12.0933 3.42869 11.5926 3.8857 11.2296C4.34272 10.8667 4.93132 10.6665 5.54084 10.6667H5.83334" stroke="hsl(240 5.9% 10%)" stroke-width="1.83333" stroke-linecap="round" stroke-linejoin="round"/>
</svg>
