<svg width="25" height="25" viewBox="0 0 25 25" fill="none" xmlns="http://www.w3.org/2000/svg">
<path d="M19.7917 4.16667C20.3442 4.16667 20.8741 4.38616 21.2648 4.77686C21.6555 5.16756 21.875 5.69747 21.875 6.25V7.29167H15.625C14.2437 7.29167 12.9189 7.8404 11.9422 8.81715C10.9654 9.7939 10.4167 11.1187 10.4167 12.5C10.4167 13.8813 10.9654 15.2061 11.9422 16.1828C12.9189 17.1596 14.2437 17.7083 15.625 17.7083H21.875V18.75C21.875 19.3025 21.6555 19.8324 21.2648 20.2231C20.8741 20.6138 20.3442 20.8333 19.7917 20.8333H5.20833C4.6558 20.8333 4.12589 20.6138 3.73519 20.2231C3.34449 19.8324 3.125 19.3025 3.125 18.75V6.25C3.125 5.69747 3.34449 5.16756 3.73519 4.77686C4.12589 4.38616 4.6558 4.16667 5.20833 4.16667H19.7917ZM20.8333 9.375C21.3859 9.375 21.9158 9.59449 22.3065 9.98519C22.6972 10.3759 22.9167 10.9058 22.9167 11.4583V13.5417C22.9167 14.0942 22.6972 14.6241 22.3065 15.0148C21.9158 15.4055 21.3859 15.625 20.8333 15.625H15.625C14.7962 15.625 14.0013 15.2958 13.4153 14.7097C12.8292 14.1237 12.5 13.3288 12.5 12.5C12.5 11.6712 12.8292 10.8763 13.4153 10.2903C14.0013 9.70424 14.7962 9.375 15.625 9.375H20.8333ZM15.625 11.4583C15.3487 11.4583 15.0838 11.5681 14.8884 11.7634C14.6931 11.9588 14.5833 12.2237 14.5833 12.5C14.5833 12.7763 14.6931 13.0412 14.8884 13.2366C15.0838 13.4319 15.3487 13.5417 15.625 13.5417C15.9013 13.5417 16.1662 13.4319 16.3616 13.2366C16.5569 13.0412 16.6667 12.7763 16.6667 12.5C16.6667 12.2237 16.5569 11.9588 16.3616 11.7634C16.1662 11.5681 15.9013 11.4583 15.625 11.4583Z" fill="#BBFB4C"/>
</svg>
